<?xml version="1.0" encoding="iso-8859-1"?>
<!-- Generator: Adobe Illustrator 23.0.5, SVG Export Plug-In . SVG Version: 6.00 Build 0)  -->
<svg version="1.1" xmlns="http://www.w3.org/2000/svg" xmlns:xlink="http://www.w3.org/1999/xlink" x="0px" y="0px"
	 viewBox="0 0 492 492" style="enable-background:new 0 0 492 492;" xml:space="preserve">
<g id="Master_Layer_2">
</g>
<g id="Layer_1">
	<g>
		<g>
			<g>
				<g>
					<g>
						<path style="fill-rule:evenodd;clip-rule:evenodd;fill:#f0022a;" d="M241.507,139.298c-2.136,0-4.2-1.2-5.184-3.264
							c-1.392-2.856-0.192-6.312,2.688-7.704c6.624-3.192,65.616-31.152,97.632-27.528c10.368,1.176,19.968,4.56,30.144,8.16
							c16.872,5.952,34.32,12.12,57.12,8.496c3.144-0.504,6.096,1.632,6.6,4.776c0.504,3.144-1.632,6.096-4.776,6.6
							c-25.704,4.104-45.408-2.856-62.784-9c-9.552-3.36-18.552-6.552-27.6-7.584c-10.632-1.2-27.384,1.896-48.432,9
							c-16.392,5.52-32.904,12.648-42.888,17.472C243.211,139.106,242.347,139.298,241.507,139.298z"/>
					</g>
				</g>
				<g>
					<g>
						<path style="fill-rule:evenodd;clip-rule:evenodd;fill:#f0022a;" d="M367.507,217.802c-11.808,0-24.792-5.928-36.36-11.208
							c-5.112-2.328-9.936-4.536-13.704-5.736c-4.584-1.464-12.624-2.4-21.12-3.384c-17.448-2.016-35.496-4.104-44.184-11.928
							c-5.424-4.872-8.064-11.304-7.44-18.096c0.576-6.432,4.032-12.192,9.264-15.408c7.8-4.824,22.8-3.792,46.656-1.704
							c22.44,1.968,47.856,4.176,62.136-1.656c2.952-1.2,6.312,0.216,7.512,3.168c1.2,2.952-0.216,6.312-3.168,7.512
							c-16.848,6.888-43.752,4.536-67.488,2.448c-9.576-0.84-18.624-1.632-25.944-1.704c-9.288-0.096-12.552,1.032-13.656,1.728
							c-2.088,1.272-3.576,3.888-3.84,6.624c-0.192,2.184,0.288,5.424,3.696,8.496c2.472,2.208,7.416,4.128,14.688,5.688
							c7.104,1.512,15.24,2.448,23.112,3.36c9.456,1.104,17.64,2.04,23.304,3.84c4.44,1.416,9.552,3.744,14.976,6.216
							c24.192,11.04,29.472,10.488,33.72,10.056c11.856-1.224,20.76-7.656,26.064-11.496c0.288-0.192,0.552-0.408,0.816-0.576
							c3.552-2.544,6.888-5.424,9.936-8.568c2.208-2.28,5.856-2.352,8.136-0.12c2.28,2.208,2.352,5.856,0.12,8.136
							c-3.528,3.624-7.368,6.96-11.472,9.912l-0.792,0.576c-5.832,4.224-16.704,12.096-31.656,13.608
							C369.715,217.754,368.611,217.802,367.507,217.802z"/>
					</g>
				</g>
				<g>
					<g>
						<path style="fill-rule:evenodd;clip-rule:evenodd;fill:#f0022a;" d="M241.507,243.026c-15.384,0-29.856-6-40.752-16.872
							c-10.896-10.896-16.872-25.368-16.872-40.752s6-29.856,16.872-40.752c10.896-10.896,25.368-16.872,40.752-16.872
							c9.432,0,18.384,2.112,26.568,6.264c7.92,4.032,14.88,9.984,20.088,17.184c1.872,2.568,1.296,6.168-1.296,8.04
							c-2.568,1.872-6.168,1.296-8.04-1.296c-8.592-11.88-22.176-18.696-37.296-18.696c-25.416,0-46.104,20.688-46.104,46.104
							s20.688,46.104,46.104,46.104c23.472,0,43.176-17.568,45.816-40.848c0.36-3.168,3.216-5.424,6.384-5.064
							s5.424,3.216,5.064,6.384c-1.584,13.968-8.256,26.88-18.744,36.312C269.419,237.794,255.739,243.026,241.507,243.026z"/>
					</g>
				</g>
				<g>
					<g>
						<path style="fill-rule:evenodd;clip-rule:evenodd;fill:#f0022a;" d="M325.387,230.162c-3.408,0-6.696-1.104-9.504-3.288
							c-3.408-2.664-5.808-6.72-6.912-11.76c-1.128-5.064-0.96-11.064,0.48-17.808c0.672-3.12,3.72-5.088,6.84-4.44
							c3.12,0.672,5.088,3.72,4.44,6.84c-2.184,10.344-0.264,16.128,2.256,18.096c1.776,1.392,3.744,0.768,4.752,0.264
							c3.024-1.488,6.264-5.904,6.264-13.872c0-3.192,2.568-5.76,5.76-5.76l0,0c3.168,0,5.76,2.568,5.76,5.76
							c0,5.712-1.176,10.776-3.504,15.096c-2.232,4.128-5.424,7.296-9.216,9.144C330.355,229.586,327.835,230.162,325.387,230.162z"
							/>
					</g>
				</g>
				<g>
					<g>
						<path style="fill-rule:evenodd;clip-rule:evenodd;fill:#f0022a;" d="M299.035,229.322c-3.888,0-7.608-1.488-10.536-4.296
							c-2.568-2.472-8.064-9.696-3.912-23.16c0.936-3.048,4.176-4.752,7.2-3.792c3.048,0.936,4.752,4.176,3.792,7.2
							c-1.224,3.936-1.608,9.024,0.912,11.472c1.08,1.032,2.52,1.32,4.056,0.792c3.024-1.032,6.672-5.352,7.92-14.28
							c0.432-3.144,3.336-5.352,6.48-4.92c3.144,0.432,5.352,3.336,4.92,6.48c-0.84,6.12-2.664,11.304-5.424,15.408
							c-2.688,3.984-6.192,6.816-10.128,8.184C302.563,229.034,300.787,229.322,299.035,229.322z"/>
					</g>
				</g>
				<g>
					<g>
						<g>
							<g>
								<path style="fill-rule:evenodd;clip-rule:evenodd;fill:#f0022a;" d="M179.203,383.978c-6.432,0-12.864-0.744-19.152-2.232
									c-3.528-0.84-7.632-2.016-11.976-3.264c-12.672-3.624-31.848-9.096-39.936-5.76c-2.928,1.224-6.312-0.168-7.536-3.12
									c-1.224-2.928,0.168-6.312,3.12-7.536c11.808-4.896,30.768,0.528,47.52,5.328c4.224,1.2,8.208,2.352,11.472,3.12
									c7.584,1.8,15.384,2.352,23.136,1.632c26.472-2.448,59.136-10.392,85.271-20.76c13.44-5.328,24.72-11.136,32.592-16.776
									c7.608-5.448,12.12-10.848,12.696-15.144c0.216-1.608,0.264-3.696-0.648-4.512c-0.768-0.696-3.624-2.16-13.368-0.864
									c-7.896,1.032-17.88,3.528-28.44,6.192c-19.416,4.848-41.448,10.368-59.832,9.288c-3.168-0.192-5.592-2.904-5.424-6.072
									c0.192-3.168,2.904-5.592,6.072-5.424c16.632,0.96,37.728-4.32,56.376-8.976c10.896-2.712,21.192-5.304,29.736-6.432
									c11.088-1.464,18.048-0.336,22.56,3.696c3.768,3.36,5.256,8.28,4.392,14.64c-1.032,7.728-6.888,15.456-17.4,22.992
									c-8.76,6.264-20.544,12.384-35.064,18.12c-27.072,10.728-60.96,18.96-88.439,21.504
									C184.315,383.857,181.747,383.978,179.203,383.978z"/>
							</g>
						</g>
						<g>
							<g>
								<path style="fill-rule:evenodd;clip-rule:evenodd;fill:#f0022a;" d="M201.235,340.441h-38.112
									c-3.192,0-5.76-2.568-5.76-5.76c0-3.192,2.568-5.76,5.76-5.76h38.112c4.104,0,7.464-3.192,7.656-7.296
									c0.096-2.064-0.648-4.056-2.112-5.568c-1.512-1.584-3.552-2.448-5.736-2.448l-47.112,0c-0.024,0-0.024,0-0.048,0
									c-3.168-0.024-10.632-0.096-18.312,1.608c-8.352,1.848-15.048,5.304-19.872,10.248c-1.08,1.128-2.112,2.328-3.048,3.624
									c-1.872,2.568-5.472,3.144-8.04,1.272c-2.568-1.872-3.144-5.472-1.272-8.04c1.248-1.728,2.64-3.36,4.104-4.872
									c15.216-15.6,38.76-15.408,46.536-15.336l47.088,0c5.28,0,10.416,2.184,14.064,6.024c3.648,3.816,5.52,8.808,5.28,14.064
									C219.931,332.401,211.507,340.441,201.235,340.441z"/>
							</g>
						</g>
					</g>
				</g>
				<g>
					<g>
						<g>
							<path style="fill-rule:evenodd;clip-rule:evenodd;fill:#f0022a;" d="M105.907,393.001c-3.192,0-5.76-2.568-5.76-5.76v-85.752
								c0-3.192,2.568-5.76,5.76-5.76s5.76,2.568,5.76,5.76v85.752C111.667,390.434,109.099,393.001,105.907,393.001z"/>
						</g>
					</g>
					<g>
						<g>
							<path style="fill-rule:evenodd;clip-rule:evenodd;fill:#f0022a;" d="M105.907,393.001H67.699c-3.192,0-5.76-2.568-5.76-5.76
								c0-3.192,2.568-5.76,5.76-5.76h38.208c3.192,0,5.76,2.568,5.76,5.76C111.667,390.434,109.099,393.001,105.907,393.001z"/>
						</g>
					</g>
					<g>
						<g>
							<path style="fill-rule:evenodd;clip-rule:evenodd;fill:#f0022a;" d="M105.907,307.25H67.699c-3.192,0-5.76-2.568-5.76-5.76
								c0-3.192,2.568-5.76,5.76-5.76h38.208c3.192,0,5.76,2.568,5.76,5.76C111.667,304.682,109.099,307.25,105.907,307.25z"/>
						</g>
					</g>
				</g>
			</g>
		</g>
	</g>
</g>
</svg>
